HIERARCHY
ROOT Hips
{
	OFFSET -0.001795 -0.223333 0.028219
	CHANNELS 6 Xposition Yposition Zposition Zrotation Yrotation Xrotation 
	JOINT LeftUpLeg
	{
		OFFSET 0.069520 -0.091406 -0.006815
		CHANNELS 3 Zrotation Yrotation Xrotation
		JOINT LeftLeg
		{
			OFFSET 0.034277 -0.375199 -0.004496
			CHANNELS 3 Zrotation Yrotation Xrotation
			JOINT LeftFoot
			{
				OFFSET -0.013596 -0.397961 -0.043693
				CHANNELS 3 Zrotation Yrotation Xrotation
				JOINT LeftToe
				{
					OFFSET 0.026358 -0.055791 0.119288
					CHANNELS 3 Zrotation Yrotation Xrotation
					End Site
					{
						OFFSET 0.000000 0.000000 0.000000
					}
				}
			}
		}
	}
	JOINT RightUpLeg
	{
		OFFSET -0.067670 -0.090522 -0.004320
		CHANNELS 3 Zrotation Yrotation Xrotation
		JOINT RightLeg
		{
			OFFSET -0.038290 -0.382569 -0.008850
			CHANNELS 3 Zrotation Yrotation Xrotation
			JOINT RightFoot
			{
				OFFSET 0.015774 -0.398415 -0.042312
				CHANNELS 3 Zrotation Yrotation Xrotation
				JOINT RightToe
				{
					OFFSET -0.025372 -0.048144 0.123348
					CHANNELS 3 Zrotation Yrotation Xrotation
					End Site
					{
						OFFSET 0.000000 0.000000 0.000000
					}
				}
			}
		}
	}
	JOINT Spine
	{
		OFFSET -0.002533 0.108963 -0.026696
		CHANNELS 3 Zrotation Yrotation Xrotation
		JOINT Spine1
		{
			OFFSET 0.005487 0.135180 0.001092
			CHANNELS 3 Zrotation Yrotation Xrotation
			JOINT Spine2
			{
				OFFSET 0.001457 0.052922 0.025425
				CHANNELS 3 Zrotation Yrotation Xrotation
				JOINT Neck
				{
					OFFSET -0.002778 0.213870 -0.042857
					CHANNELS 3 Zrotation Yrotation Xrotation
					JOINT Head
					{
						OFFSET 0.005152 0.064970 0.051349
						CHANNELS 3 Zrotation Yrotation Xrotation
						End Site
						{
							OFFSET 0.000000 0.000000 0.000000
						}
					}
				}
				JOINT LeftShoulder
				{
					OFFSET 0.078845 0.121749 -0.034090
					CHANNELS 3 Zrotation Yrotation Xrotation
					JOINT LeftArm
					{
						OFFSET 0.090977 0.030469 -0.008868
						CHANNELS 3 Zrotation Yrotation Xrotation
						JOINT LeftForeArm
						{
							OFFSET 0.259612 -0.012772 -0.027456
							CHANNELS 3 Zrotation Yrotation Xrotation
							JOINT LeftHand
							{
								OFFSET 0.249234 0.008986 -0.001171
								CHANNELS 3 Zrotation Yrotation Xrotation
								End Site
								{
									OFFSET 0.000000 0.000000 0.000000
								}
							}
						}
					}
				}
				JOINT RightShoulder
				{
					OFFSET -0.081759 0.118833 -0.038615
					CHANNELS 3 Zrotation Yrotation Xrotation
					JOINT RightArm
					{
						OFFSET -0.096012 0.032551 -0.009143
						CHANNELS 3 Zrotation Yrotation Xrotation
						JOINT RightForeArm
						{
							OFFSET -0.253742 -0.013329 -0.021401
							CHANNELS 3 Zrotation Yrotation Xrotation
							JOINT RightHand
							{
								OFFSET -0.255298 0.007772 -0.005559
								CHANNELS 3 Zrotation Yrotation Xrotation
								End Site
								{
									OFFSET 0.000000 0.000000 0.000000
								}
							}
						}
					}
				}
			}
		}
	}
}
MOTION
Frames: 10
Frame Time: 0.050000
0.000000 0.945448 0.000000 0.330939 -2.535188 4.219821 4.310828 -0.168054 -1.679718 1.258515 0.079808 -4.872164 1.397890 7.196911 14.456131 0.000000 0.000000 0.000000 -2.971673 0.306185 -2.614664 -4.045298 0.092628 -4.192912 -1.308123 -8.664166 15.088415 0.000000 0.000000 0.000000 4.895469 0.106948 -2.536950 -2.579465 1.213416 -1.480771 -3.925688 3.837307 5.509422 4.212158 -2.793119 -3.827491 0.000000 0.000000 0.000000 -18.222367 -1.710756 -1.597711 -52.720185 -5.526035 -3.820803 -7.194957 -19.273826 1.833778 0.000000 0.000000 0.000000 16.258844 -6.214842 -4.033212 62.915911 3.122057 -4.421203 4.621215 22.520473 1.761848 0.000000 0.000000 0.000000 
0.000400 0.944425 0.000595 0.300406 -2.577911 4.634842 4.422041 -0.142289 -1.108129 1.071649 0.171829 -6.600599 1.364424 7.177560 14.628470 0.000000 0.000000 0.000000 -2.995889 0.343979 -3.077007 -4.012250 0.094860 -4.114937 -1.366795 -8.696153 14.802355 0.000000 0.000000 0.000000 5.927596 0.120082 -2.750171 -2.966514 1.388117 -1.577322 -5.102096 4.000236 5.118447 3.735490 -2.404542 -3.835566 0.000000 0.000000 0.000000 -18.760769 -1.066819 -2.109012 -51.545004 -5.382752 -3.721779 -7.408540 -19.428803 1.866843 0.000000 0.000000 0.000000 16.040684 -7.154051 -4.433663 64.044372 1.979625 -5.024055 5.102134 23.280180 1.937611 0.000000 0.000000 0.000000 
0.000707 0.944349 0.000756 0.720007 -2.484974 4.646398 4.004119 -0.171052 -1.655012 0.969675 0.137498 -5.712258 1.356934 7.134230 14.446709 0.000000 0.000000 0.000000 -3.335788 0.370733 -3.395911 -4.264104 0.155659 -3.535357 -1.499401 -8.852748 14.548311 0.000000 0.000000 0.000000 5.791503 0.126212 -2.825558 -3.017784 1.403573 -2.201310 -5.574998 3.787226 5.369378 3.135079 -2.039972 -3.214824 0.000000 0.000000 0.000000 -18.497500 -1.580452 -1.769903 -51.442514 -5.330405 -3.773531 -6.778826 -18.324735 1.667283 0.000000 0.000000 0.000000 17.421270 -6.583143 -4.321159 62.353207 1.551367 -5.225422 5.673499 22.917274 2.002992 0.000000 0.000000 0.000000 
0.000882 0.944336 0.000954 1.003590 -2.084294 4.793329 4.074941 -0.181996 -1.767637 0.325514 0.185745 -5.931079 1.105529 6.817486 14.543257 0.000000 0.000000 0.000000 -3.583691 0.391914 -3.679028 -4.355681 0.193315 -3.159197 -1.751479 -9.216908 14.457911 0.000000 0.000000 0.000000 5.820548 0.130745 -2.917668 -3.284131 1.533989 -1.608534 -5.691188 3.325391 4.466942 2.624937 -1.797111 -2.112055 0.000000 0.000000 0.000000 -18.722844 -1.211962 -1.983583 -51.358142 -5.535043 -3.588760 -5.879756 -18.137127 1.506720 0.000000 0.000000 0.000000 16.951702 -7.102912 -4.592760 62.486632 0.795301 -5.515995 6.696920 23.638863 2.252915 0.000000 0.000000 0.000000 
0.001041 0.944418 0.001137 1.284178 -1.937420 4.678470 3.441927 -0.170480 -1.617796 0.894462 0.155995 -6.021806 1.004525 6.699400 14.618848 0.000000 0.000000 0.000000 -3.751630 0.383795 -3.567900 -4.611029 0.220638 -3.068353 -1.843955 -9.349593 14.414242 0.000000 0.000000 0.000000 5.699802 0.134386 -2.943916 -3.201580 1.499618 -1.417727 -6.060956 3.404045 4.506951 2.089570 -1.357295 -2.216123 0.000000 0.000000 0.000000 -18.858235 -1.523829 -1.894345 -51.015714 -6.042593 -3.341771 -5.845169 -17.380637 1.432675 0.000000 0.000000 0.000000 17.064875 -7.182418 -4.604045 62.134787 0.795041 -5.487584 6.796097 23.240495 2.238029 0.000000 0.000000 0.000000 
0.001107 0.944675 0.001314 1.594148 -1.830736 4.729468 3.319036 -0.163944 -1.507587 0.509326 0.191917 -6.355483 0.870168 6.566813 14.866587 0.000000 0.000000 0.000000 -3.852631 0.380182 -3.505319 -5.042361 0.240156 -3.233512 -1.896888 -9.453844 14.515203 0.000000 0.000000 0.000000 5.613860 0.147863 -3.110008 -3.314494 1.551162 -1.446572 -6.209850 3.442886 4.666113 1.903750 -1.271978 -1.737411 0.000000 0.000000 0.000000 -19.141512 -1.516412 -1.961274 -50.848826 -6.343433 -3.206360 -5.202050 -16.867024 1.295594 0.000000 0.000000 0.000000 16.985900 -7.108909 -4.529820 62.284987 0.839083 -5.484984 6.548288 23.028054 2.174565 0.000000 0.000000 0.000000 
0.001110 0.944615 0.001437 1.756020 -1.807583 4.692625 3.063359 -0.160910 -1.488580 0.647500 0.182931 -6.322468 0.851078 6.542568 14.873978 0.000000 0.000000 0.000000 -3.781422 0.362332 -3.255484 -5.493547 0.242534 -3.593179 -1.896939 -9.467397 14.580803 0.000000 0.000000 0.000000 5.584122 0.153930 -3.171549 -3.415937 1.601271 -1.231829 -6.314481 3.248947 4.616539 1.901853 -1.214156 -2.199537 0.000000 0.000000 0.000000 -19.362205 -1.484414 -1.970524 -50.867741 -6.263351 -3.239301 -4.719247 -16.228119 1.183730 0.000000 0.000000 0.000000 16.837567 -6.967138 -4.468748 62.481870 0.594159 -5.625733 6.405506 23.077037 2.143702 0.000000 0.000000 0.000000 
0.001039 0.944592 0.001520 1.775511 -1.683532 4.731624 3.119082 -0.167639 -1.573096 0.536741 0.187094 -6.275396 0.791176 6.460906 14.853103 0.000000 0.000000 0.000000 -3.723890 0.356897 -3.190578 -5.612531 0.239838 -3.728861 -1.951147 -9.557440 14.633846 0.000000 0.000000 0.000000 5.625789 0.155403 -3.199419 -3.370510 1.582077 -1.108016 -6.597815 3.327042 4.459452 2.243038 -1.516620 -1.898076 0.000000 0.000000 0.000000 -19.455944 -1.652540 -1.954550 -50.688844 -6.186879 -3.228588 -4.118875 -15.891690 1.071458 0.000000 0.000000 0.000000 16.926148 -7.061551 -4.492426 62.649241 0.564895 -5.630302 6.195259 22.786603 2.081274 0.000000 0.000000 0.000000 
0.000876 0.944597 0.001530 1.809738 -1.717512 4.785872 3.051186 -0.173231 -1.660920 0.605079 0.180933 -6.216980 0.811844 6.491427 14.866518 0.000000 0.000000 0.000000 -3.676601 0.346766 -3.037961 -5.753431 0.214030 -4.124760 -1.910808 -9.516186 14.740352 0.000000 0.000000 0.000000 5.643989 0.165626 -3.319687 -3.418262 1.603882 -1.111738 -6.626569 3.280660 4.490614 2.342453 -1.568977 -2.097734 0.000000 0.000000 0.000000 -19.402639 -1.683491 -1.913891 -50.881886 -6.171394 -3.255871 -3.664455 -15.285154 0.973506 0.000000 0.000000 0.000000 16.840670 -6.949455 -4.434001 62.723078 0.428216 -5.712109 6.087355 22.713300 2.050363 0.000000 0.000000 0.000000 
0.000605 0.944761 0.001499 1.819717 -1.790189 4.858263 3.097327 -0.173365 -1.655662 0.525024 0.190944 -6.351342 0.824304 6.531065 14.988136 0.000000 0.000000 0.000000 -3.710599 0.340703 -2.924025 -5.689458 0.175308 -4.506797 -1.843858 -9.440338 14.875851 0.000000 0.000000 0.000000 5.668645 0.175194 -3.433606 -3.414207 1.600555 -1.179551 -6.786554 3.431334 4.581671 2.581559 -1.751770 -2.108106 0.000000 0.000000 0.000000 -19.272376 -1.815466 -1.858305 -51.002878 -6.164828 -3.272043 -3.113078 -14.838735 0.873189 0.000000 0.000000 0.000000 16.936762 -6.889993 -4.384960 62.773859 0.464051 -5.705582 5.780664 22.530030 1.983149 0.000000 0.000000 0.000000 
